<svg width="48" height="48" viewBox="0 0 48 48" fill="none" xmlns="http://www.w3.org/2000/svg">
<circle cx="24" cy="24" r="24" fill="#C4C4C4" fill-opacity="0.2"/>
<path d="M29.9986 12.005L26.8864 12C23.3899 12 21.1303 14.3183 21.1303 17.9064V20.6297H18.0011C17.7307 20.6297 17.5117 20.8489 17.5117 21.1193V25.065C17.5117 25.3354 17.7309 25.5544 18.0011 25.5544H21.1303V35.5106C21.1303 35.781 21.3493 36 21.6197 36H25.7024C25.9728 36 26.1918 35.7808 26.1918 35.5106V25.5544H29.8505C30.1209 25.5544 30.3399 25.3354 30.3399 25.065L30.3414 21.1193C30.3414 20.9895 30.2897 20.8651 30.1981 20.7733C30.1065 20.6814 29.9816 20.6297 29.8518 20.6297H26.1918V18.3212C26.1918 17.2116 26.4562 16.6483 27.9016 16.6483L29.9981 16.6475C30.2682 16.6475 30.4872 16.4283 30.4872 16.1582V12.4944C30.4872 12.2245 30.2685 12.0055 29.9986 12.005Z" fill="white"/>
</svg>
