<svg width="14" height="24" viewBox="0 0 14 24" fill="none" xmlns="http://www.w3.org/2000/svg">
<path d="M12.9986 0.0049936L9.88636 0C6.38988 0 4.1303 2.31828 4.1303 5.90643V8.62969H1.00109C0.730686 8.62969 0.511719 8.84891 0.511719 9.11932V13.065C0.511719 13.3354 0.730936 13.5544 1.00109 13.5544H4.1303V23.5106C4.1303 23.781 4.34926 24 4.61966 24H8.70239C8.97279 24 9.19176 23.7808 9.19176 23.5106V13.5544H12.8505C13.1209 13.5544 13.3399 13.3354 13.3399 13.065L13.3414 9.11932C13.3414 8.98948 13.2897 8.86514 13.1981 8.77326C13.1065 8.68138 12.9816 8.62969 12.8518 8.62969H9.19176V6.32115C9.19176 5.21157 9.45617 4.64829 10.9016 4.64829L12.9981 4.64755C13.2682 4.64755 13.4872 4.42833 13.4872 4.15817V0.494367C13.4872 0.224462 13.2685 0.00549296 12.9986 0.0049936Z" fill="#431860"/>
</svg>
