<svg width="48" height="48" viewBox="0 0 48 48" fill="none" xmlns="http://www.w3.org/2000/svg">
<circle cx="24" cy="24" r="24" fill="#C4C4C4" fill-opacity="0.2"/>
<g clip-path="url(#clip0_3_1675)">
<path d="M24 14.163C27.204 14.163 27.584 14.175 28.85 14.233C32.102 14.381 33.621 15.924 33.769 19.152C33.827 20.417 33.838 20.797 33.838 24.001C33.838 27.206 33.826 27.585 33.769 28.85C33.62 32.075 32.105 33.621 28.85 33.769C27.584 33.827 27.206 33.839 24 33.839C20.796 33.839 20.416 33.827 19.151 33.769C15.891 33.62 14.38 32.07 14.232 28.849C14.174 27.584 14.162 27.205 14.162 24C14.162 20.796 14.175 20.417 14.232 19.151C14.381 15.924 15.896 14.38 19.151 14.232C20.417 14.175 20.796 14.163 24 14.163ZM24 12C20.741 12 20.333 12.014 19.053 12.072C14.695 12.272 12.273 14.69 12.073 19.052C12.014 20.333 12 20.741 12 24C12 27.259 12.014 27.668 12.072 28.948C12.272 33.306 14.69 35.728 19.052 35.928C20.333 35.986 20.741 36 24 36C27.259 36 27.668 35.986 28.948 35.928C33.302 35.728 35.73 33.31 35.927 28.948C35.986 27.668 36 27.259 36 24C36 20.741 35.986 20.333 35.928 19.053C35.732 14.699 33.311 12.273 28.949 12.073C27.668 12.014 27.259 12 24 12V12ZM24 17.838C20.597 17.838 17.838 20.597 17.838 24C17.838 27.403 20.597 30.163 24 30.163C27.403 30.163 30.162 27.404 30.162 24C30.162 20.597 27.403 17.838 24 17.838ZM24 28C21.791 28 20 26.21 20 24C20 21.791 21.791 20 24 20C26.209 20 28 21.791 28 24C28 26.21 26.209 28 24 28ZM30.406 16.155C29.61 16.155 28.965 16.8 28.965 17.595C28.965 18.39 29.61 19.035 30.406 19.035C31.201 19.035 31.845 18.39 31.845 17.595C31.845 16.8 31.201 16.155 30.406 16.155Z" fill="white"/>
</g>
<defs>
<clipPath id="clip0_3_1675">
<rect width="24" height="24" fill="white" transform="translate(12 12)"/>
</clipPath>
</defs>
</svg>
