<svg width="24" height="24" viewBox="0 0 24 24" fill="none" xmlns="http://www.w3.org/2000/svg">
<path d="M5.58697 7.7207H0.768933C0.5551 7.7207 0.381836 7.89405 0.381836 8.1078V23.5861C0.381836 23.7999 0.5551 23.9732 0.768933 23.9732H5.58697C5.8008 23.9732 5.97407 23.7999 5.97407 23.5861V8.1078C5.97407 7.89405 5.8008 7.7207 5.58697 7.7207Z" fill="#431860"/>
<path d="M3.1793 0.0263672C1.42622 0.0263672 0 1.45104 0 3.20219C0 4.95411 1.42622 6.37932 3.1793 6.37932C4.93099 6.37932 6.35605 4.95403 6.35605 3.20219C6.35613 1.45104 4.93099 0.0263672 3.1793 0.0263672Z" fill="#431860"/>
<path d="M17.8412 7.33594C15.9062 7.33594 14.4757 8.16781 13.608 9.11302V8.10773C13.608 7.89398 13.4348 7.72063 13.2209 7.72063H8.60682C8.39299 7.72063 8.21973 7.89398 8.21973 8.10773V23.586C8.21973 23.7999 8.39299 23.9731 8.60682 23.9731H13.4143C13.6282 23.9731 13.8014 23.7999 13.8014 23.586V15.9279C13.8014 13.3472 14.5024 12.3419 16.3013 12.3419C18.2605 12.3419 18.4162 13.9536 18.4162 16.0606V23.5861C18.4162 23.7999 18.5894 23.9732 18.8033 23.9732H23.6126C23.8264 23.9732 23.9997 23.7999 23.9997 23.5861V15.096C23.9997 11.2587 23.268 7.33594 17.8412 7.33594Z" fill="#431860"/>
</svg>
