<svg width="48" height="48" viewBox="0 0 48 48" fill="none" xmlns="http://www.w3.org/2000/svg">
<circle cx="24" cy="24" r="24" fill="#C4C4C4" fill-opacity="0.2"/>
<path d="M17.5879 19.7207H12.7699C12.5561 19.7207 12.3828 19.894 12.3828 20.1078V35.5861C12.3828 35.7999 12.5561 35.9732 12.7699 35.9732H17.5879C17.8018 35.9732 17.975 35.7999 17.975 35.5861V20.1078C17.975 19.894 17.8018 19.7207 17.5879 19.7207Z" fill="white"/>
<path d="M15.1793 12.0254C13.4262 12.0254 12 13.4501 12 15.2012C12 16.9531 13.4262 18.3783 15.1793 18.3783C16.931 18.3783 18.3561 16.9531 18.3561 15.2012C18.3561 13.4501 16.931 12.0254 15.1793 12.0254Z" fill="white"/>
<path d="M29.8403 19.3359C27.9052 19.3359 26.4747 20.1678 25.6071 21.113V20.1077C25.6071 19.894 25.4338 19.7206 25.22 19.7206H20.6058C20.392 19.7206 20.2188 19.894 20.2188 20.1077V35.586C20.2188 35.7999 20.392 35.9731 20.6058 35.9731H25.4134C25.6272 35.9731 25.8005 35.7999 25.8005 35.586V27.9279C25.8005 25.3472 26.5014 24.3419 28.3003 24.3419C30.2595 24.3419 30.4152 25.9536 30.4152 28.0606V35.5861C30.4152 35.8 30.5885 35.9732 30.8023 35.9732H35.6116C35.8254 35.9732 35.9987 35.8 35.9987 35.5861V27.096C35.9987 23.2587 35.267 19.3359 29.8403 19.3359Z" fill="white"/>
</svg>
