<svg width="196" height="85" viewBox="0 0 196 85" fill="none" xmlns="http://www.w3.org/2000/svg">
<path d="M3.95881 37.264C3.83081 37.264 3.76681 37.344 3.76681 37.504V39.76C3.76681 39.92 3.68681 40 3.52681 40H0.694813C0.534813 40 0.454813 39.92 0.454813 39.76V31.696C0.454813 31.536 0.534813 31.456 0.694813 31.456H3.52681C3.68681 31.456 3.76681 31.536 3.76681 31.696C3.76681 31.696 3.76681 31.984 3.76681 32.56C3.76681 32.976 3.84681 33.024 4.00681 32.704C4.35881 32.032 4.72681 30.928 5.11081 29.392C5.46281 27.856 5.73481 26.272 5.92681 24.64C6.27881 21.504 6.45481 18.064 6.45481 14.32C6.45481 13.776 6.43881 13.152 6.40681 12.448C6.40681 11.712 6.39081 11.088 6.35881 10.576C6.35881 10.064 6.35881 9.792 6.35881 9.76C6.35881 9.696 6.32681 9.648 6.26281 9.616C6.23081 9.584 6.18281 9.568 6.11881 9.568H6.02281C5.79881 9.632 5.46281 9.664 5.01481 9.664C3.79881 9.664 2.75881 9.248 1.89481 8.416C1.03081 7.552 0.598813 6.496 0.598813 5.248C0.598813 4.032 1.03081 2.992 1.89481 2.128C2.75881 1.264 3.79881 0.831998 5.01481 0.831998C6.23081 0.831998 7.27081 1.248 8.13481 2.08C8.99881 2.912 9.44681 3.92 9.47881 5.104C9.47881 5.2 9.49481 5.696 9.52681 6.592C9.59081 7.488 9.63881 8.656 9.67081 10.096C9.73481 11.504 9.76681 12.912 9.76681 14.32C9.76681 16.912 9.67081 19.568 9.47881 22.288C9.22281 25.2 8.83881 27.824 8.32681 30.16C7.94281 31.856 7.54281 33.12 7.12681 33.952L6.93481 34.288C7.67081 34.288 8.24681 34.448 8.66281 34.768C9.07881 35.056 9.31881 35.36 9.38281 35.68L9.43081 36.16L9.38281 39.664C9.38281 39.888 9.28681 40 9.09481 40H6.26281C6.13481 40 6.07081 39.904 6.07081 39.712V39.52C6.07081 38.016 5.63881 37.264 4.77481 37.264H3.95881ZM4.19881 6.064C4.42281 6.288 4.69481 6.4 5.01481 6.4C5.33481 6.4 5.59081 6.288 5.78281 6.064C6.00681 5.84 6.11881 5.568 6.11881 5.248C6.11881 4.928 6.00681 4.672 5.78281 4.48C5.59081 4.256 5.33481 4.144 5.01481 4.144C4.69481 4.144 4.42281 4.256 4.19881 4.48C4.00681 4.672 3.91081 4.928 3.91081 5.248C3.91081 5.568 4.00681 5.84 4.19881 6.064ZM26.3306 39.424C26.3306 39.424 26.2986 39.44 26.2346 39.472C25.5306 40.336 24.5386 40.768 23.2586 40.768C22.4586 40.768 21.7546 40.576 21.1466 40.192C20.5386 39.84 20.1066 39.408 19.8506 38.896C19.5946 38.352 19.3866 37.824 19.2266 37.312C19.0986 36.8 19.0186 36.352 18.9866 35.968V35.44V1.84C18.9866 1.68 19.0666 1.6 19.2266 1.6H22.0586C22.2186 1.6 22.2986 1.68 22.2986 1.84V35.488C22.2666 36.8 22.5866 37.456 23.2586 37.456C23.5466 37.456 23.7706 37.296 23.9306 36.976C24.0906 36.624 24.1706 36.288 24.1706 35.968L24.2186 35.488V1.84C24.2186 1.68 24.2986 1.6 24.4586 1.6H27.2906C27.4506 1.6 27.5306 1.68 27.5306 1.84V35.44C27.5306 35.696 27.5466 35.904 27.5786 36.064C27.6106 36.224 27.6586 36.32 27.7226 36.352L27.7706 36.4L29.9786 37.888C30.1386 37.984 30.1546 38.096 30.0266 38.224L28.4906 40.528C28.3946 40.656 28.2666 40.688 28.1066 40.624L26.3306 39.424ZM41.4809 6.112V39.76C41.4809 39.92 41.4169 40 41.2889 40H38.4089C38.2489 40 38.1689 39.92 38.1689 39.76V6.16C38.1689 6 38.1689 5.808 38.1689 5.584C38.2009 5.36 38.2809 4.944 38.4089 4.336C38.5689 3.696 38.7769 3.152 39.0329 2.704C39.2889 2.224 39.7209 1.792 40.3289 1.408C40.9369 1.024 41.6409 0.831998 42.4409 0.831998C43.7209 0.831998 44.7129 1.28 45.4169 2.176C46.1529 3.072 46.5529 3.968 46.6169 4.864L46.7129 6.16V9.808C46.7129 10 46.6329 10.096 46.4729 10.096H43.6409C43.4809 10.096 43.4009 10 43.4009 9.808V6.112C43.4329 4.8 43.1129 4.144 42.4409 4.144C42.1529 4.144 41.9289 4.32 41.7689 4.672C41.6089 4.992 41.5129 5.312 41.4809 5.632V6.112ZM64.1587 5.152V35.44C64.1587 35.6 64.1427 35.792 64.1107 36.016C64.1107 36.24 64.0307 36.672 63.8707 37.312C63.7427 37.92 63.5347 38.464 63.2467 38.944C62.9907 39.392 62.5587 39.808 61.9507 40.192C61.3747 40.576 60.6867 40.768 59.8867 40.768C59.0867 40.768 58.3827 40.576 57.7747 40.192C57.1987 39.84 56.7667 39.408 56.4787 38.896C56.2227 38.352 56.0147 37.824 55.8547 37.312C55.7267 36.8 55.6467 36.352 55.6147 35.968V35.44V1.84C55.6147 1.68 55.6947 1.6 55.8547 1.6H58.5907C58.8147 1.6 58.9267 1.728 58.9267 1.984V35.68C58.8947 36.864 59.2147 37.456 59.8867 37.456C60.1747 37.456 60.3987 37.296 60.5587 36.976C60.7187 36.624 60.7987 36.288 60.7987 35.968L60.8467 35.488V1.84C60.8467 1.68 60.9267 1.6 61.0867 1.6H66.8947C67.0867 1.6 67.1827 1.68 67.1827 1.84V4.672C67.1827 4.832 67.0867 4.912 66.8947 4.912H64.3987C64.2387 4.912 64.1587 4.992 64.1587 5.152ZM82.8899 39.424C82.8899 39.424 82.8579 39.44 82.7939 39.472C82.0899 40.336 81.0979 40.768 79.8179 40.768C79.0179 40.768 78.3139 40.576 77.7059 40.192C77.0979 39.84 76.6659 39.408 76.4099 38.896C76.1539 38.352 75.9459 37.824 75.7859 37.312C75.6579 36.8 75.5779 36.352 75.5459 35.968V35.44V1.84C75.5459 1.68 75.6259 1.6 75.7859 1.6H78.6179C78.7779 1.6 78.8579 1.68 78.8579 1.84V35.488C78.8259 36.8 79.1459 37.456 79.8179 37.456C80.1059 37.456 80.3299 37.296 80.4899 36.976C80.6499 36.624 80.7299 36.288 80.7299 35.968L80.7779 35.488V1.84C80.7779 1.68 80.8579 1.6 81.0179 1.6H83.8499C84.0099 1.6 84.0899 1.68 84.0899 1.84V35.44C84.0899 35.696 84.1059 35.904 84.1379 36.064C84.1699 36.224 84.2179 36.32 84.2819 36.352L84.3299 36.4L86.5379 37.888C86.6979 37.984 86.7139 38.096 86.5859 38.224L85.0499 40.528C84.9539 40.656 84.8259 40.688 84.6659 40.624L82.8899 39.424ZM93.6243 1.6H99.1443C99.3043 1.6 99.3843 1.68 99.3843 1.84V35.488C99.3523 36.8 99.6883 37.456 100.392 37.456C100.68 37.456 100.888 37.296 101.016 36.976C101.176 36.624 101.272 36.288 101.304 35.968V35.488V32.224C101.304 32.064 101.384 31.984 101.544 31.984H104.376C104.568 31.984 104.664 32.064 104.664 32.224V35.44C104.664 35.6 104.648 35.792 104.616 36.016C104.616 36.24 104.536 36.672 104.376 37.312C104.248 37.92 104.04 38.464 103.752 38.944C103.496 39.392 103.064 39.808 102.456 40.192C101.88 40.576 101.192 40.768 100.392 40.768C99.0803 40.768 98.0723 40.336 97.3683 39.472C96.6643 38.576 96.2803 37.68 96.2163 36.784L96.1203 35.44V5.152C96.1203 4.992 96.0243 4.912 95.8323 4.912H93.6243C93.4643 4.912 93.3843 4.832 93.3843 4.672V1.84C93.3843 1.68 93.4643 1.6 93.6243 1.6ZM120.784 39.424C120.784 39.424 120.752 39.44 120.688 39.472C119.984 40.336 118.992 40.768 117.712 40.768C116.912 40.768 116.208 40.576 115.6 40.192C114.992 39.84 114.56 39.408 114.304 38.896C114.048 38.352 113.84 37.824 113.68 37.312C113.552 36.8 113.472 36.352 113.44 35.968V35.44V1.84C113.44 1.68 113.52 1.6 113.68 1.6H116.512C116.672 1.6 116.752 1.68 116.752 1.84V35.488C116.72 36.8 117.04 37.456 117.712 37.456C118 37.456 118.224 37.296 118.384 36.976C118.544 36.624 118.624 36.288 118.624 35.968L118.672 35.488V1.84C118.672 1.68 118.752 1.6 118.912 1.6H121.744C121.904 1.6 121.984 1.68 121.984 1.84V35.44C121.984 35.696 122 35.904 122.032 36.064C122.064 36.224 122.112 36.32 122.176 36.352L122.224 36.4L124.432 37.888C124.592 37.984 124.608 38.096 124.48 38.224L122.944 40.528C122.848 40.656 122.72 40.688 122.56 40.624L120.784 39.424ZM131.374 6.304C131.342 6.144 131.406 6.064 131.566 6.064H137.086C137.246 6.064 137.326 5.968 137.326 5.776V1.84C137.326 1.68 137.406 1.6 137.566 1.6H140.35C140.51 1.6 140.59 1.68 140.59 1.84V9.04C140.59 9.2 140.51 9.28 140.35 9.28H135.55C135.358 9.28 135.294 9.36 135.358 9.52L141.55 39.76C141.55 39.92 141.486 40 141.358 40H138.526C138.398 40 138.302 39.92 138.238 39.76L131.374 6.304ZM153.381 6.112V39.76C153.381 39.92 153.317 40 153.189 40H150.309C150.149 40 150.069 39.92 150.069 39.76V6.16C150.069 6 150.069 5.808 150.069 5.584C150.101 5.36 150.181 4.944 150.309 4.336C150.469 3.696 150.677 3.152 150.933 2.704C151.189 2.224 151.621 1.792 152.229 1.408C152.837 1.024 153.541 0.831998 154.341 0.831998C155.621 0.831998 156.613 1.28 157.317 2.176C158.053 3.072 158.453 3.968 158.517 4.864L158.613 6.16V9.808C158.613 10 158.533 10.096 158.373 10.096H155.541C155.381 10.096 155.301 10 155.301 9.808V6.112C155.333 4.8 155.013 4.144 154.341 4.144C154.053 4.144 153.829 4.32 153.669 4.672C153.509 4.992 153.413 5.312 153.381 5.632V6.112ZM174.859 39.424C174.859 39.424 174.827 39.44 174.763 39.472C174.059 40.336 173.067 40.768 171.787 40.768C170.987 40.768 170.283 40.576 169.675 40.192C169.067 39.84 168.635 39.408 168.379 38.896C168.123 38.352 167.915 37.824 167.755 37.312C167.627 36.8 167.547 36.352 167.515 35.968V35.44V1.84C167.515 1.68 167.595 1.6 167.755 1.6H170.587C170.747 1.6 170.827 1.68 170.827 1.84V35.488C170.795 36.8 171.115 37.456 171.787 37.456C172.075 37.456 172.299 37.296 172.459 36.976C172.619 36.624 172.699 36.288 172.699 35.968L172.747 35.488V1.84C172.747 1.68 172.827 1.6 172.987 1.6H175.819C175.979 1.6 176.059 1.68 176.059 1.84V35.44C176.059 35.696 176.075 35.904 176.107 36.064C176.139 36.224 176.187 36.32 176.251 36.352L176.299 36.4L178.507 37.888C178.667 37.984 178.683 38.096 178.555 38.224L177.019 40.528C176.923 40.656 176.795 40.688 176.635 40.624L174.859 39.424ZM195.097 32.224V35.44C195.097 35.6 195.081 35.792 195.049 36.016C195.049 36.24 194.969 36.672 194.809 37.312C194.681 37.92 194.489 38.464 194.233 38.944C193.977 39.392 193.545 39.808 192.937 40.192C192.329 40.576 191.625 40.768 190.825 40.768C190.025 40.768 189.321 40.576 188.713 40.192C188.105 39.84 187.673 39.408 187.417 38.896C187.161 38.352 186.953 37.824 186.793 37.312C186.665 36.8 186.585 36.352 186.553 35.968V35.44V12.4C186.553 12.24 186.553 12.048 186.553 11.824C186.585 11.6 186.665 11.184 186.793 10.576C186.953 9.936 187.161 9.392 187.417 8.944C187.673 8.464 188.105 8.032 188.713 7.648C189.321 7.264 190.025 7.072 190.825 7.072C191.273 7.104 191.593 7.136 191.785 7.168C191.785 6.464 191.657 5.92 191.401 5.536C191.145 5.152 190.889 4.96 190.633 4.96L190.249 4.912H186.793C186.633 4.912 186.553 4.832 186.553 4.672V1.888C186.553 1.696 186.633 1.6 186.793 1.6H191.209C192.809 1.6 193.929 2.368 194.569 3.904C194.921 4.736 195.097 6.064 195.097 7.888V12.4C195.097 12.56 195.017 12.64 194.857 12.64H192.025C191.865 12.64 191.785 12.56 191.785 12.4C191.849 11.088 191.529 10.432 190.825 10.432C190.505 10.432 190.265 10.592 190.105 10.912C189.945 11.232 189.865 11.552 189.865 11.872V12.352V35.488C189.865 36.8 190.185 37.456 190.825 37.456C191.113 37.456 191.337 37.296 191.497 36.976C191.657 36.624 191.737 36.288 191.737 35.968L191.785 35.488V32.224C191.785 32.064 191.865 31.984 192.025 31.984H194.857C195.017 31.984 195.097 32.064 195.097 32.224ZM9.36781 50.304C9.33581 50.144 9.39981 50.064 9.55981 50.064H15.0798C15.2398 50.064 15.3198 49.968 15.3198 49.776V45.84C15.3198 45.68 15.3998 45.6 15.5598 45.6H18.3438C18.5038 45.6 18.5838 45.68 18.5838 45.84V53.04C18.5838 53.2 18.5038 53.28 18.3438 53.28H13.5438C13.3518 53.28 13.2878 53.36 13.3518 53.52L19.5438 83.76C19.5438 83.92 19.4798 84 19.3518 84H16.5198C16.3918 84 16.2958 83.92 16.2318 83.76L9.36781 50.304ZM35.3587 83.424C35.3587 83.424 35.3267 83.44 35.2627 83.472C34.5587 84.336 33.5667 84.768 32.2867 84.768C31.4867 84.768 30.7827 84.576 30.1747 84.192C29.5667 83.84 29.1347 83.408 28.8787 82.896C28.6227 82.352 28.4147 81.824 28.2547 81.312C28.1267 80.8 28.0467 80.352 28.0147 79.968V79.44V45.84C28.0147 45.68 28.0947 45.6 28.2547 45.6H31.0867C31.2467 45.6 31.3267 45.68 31.3267 45.84V79.488C31.2947 80.8 31.6147 81.456 32.2867 81.456C32.5747 81.456 32.7987 81.296 32.9587 80.976C33.1187 80.624 33.1987 80.288 33.1987 79.968L33.2467 79.488V45.84C33.2467 45.68 33.3267 45.6 33.4867 45.6H36.3187C36.4787 45.6 36.5587 45.68 36.5587 45.84V79.44C36.5587 79.696 36.5747 79.904 36.6067 80.064C36.6387 80.224 36.6867 80.32 36.7507 80.352L36.7987 80.4L39.0067 81.888C39.1667 81.984 39.1827 82.096 39.0547 82.224L37.5187 84.528C37.4227 84.656 37.2947 84.688 37.1347 84.624L35.3587 83.424ZM55.5011 50.256C55.5011 52.592 54.8771 54.304 53.6291 55.392C53.5011 55.488 53.4371 55.584 53.4371 55.68C53.4371 55.744 53.4691 55.792 53.5331 55.824L53.6291 55.872C54.1411 56.128 54.5411 56.576 54.8291 57.216C55.1491 57.824 55.3411 58.368 55.4051 58.848L55.5011 59.616V79.344C55.5011 79.504 55.4851 79.712 55.4531 79.968C55.4531 80.192 55.3731 80.624 55.2131 81.264C55.0531 81.872 54.8291 82.416 54.5411 82.896C54.2851 83.376 53.8531 83.808 53.2451 84.192C52.6691 84.576 51.9651 84.768 51.1331 84.768C49.8211 84.768 48.7971 84.32 48.0611 83.424C47.3571 82.528 46.9571 81.632 46.8611 80.736L46.7651 79.344V76.08C46.7651 75.92 46.8451 75.84 47.0051 75.84H49.8851C50.0771 75.84 50.1731 75.92 50.1731 76.08V79.392C50.1411 80.704 50.4611 81.36 51.1331 81.36C51.4211 81.36 51.6451 81.2 51.8051 80.88C51.9651 80.528 52.0451 80.192 52.0451 79.872L52.0931 79.392V59.664C52.0931 59.024 51.9011 58.544 51.5171 58.224C51.1651 57.872 50.7971 57.696 50.4131 57.696L49.8371 57.648C49.6771 57.648 49.5971 57.568 49.5971 57.408V54.528C49.5971 54.368 49.6771 54.288 49.8371 54.288C50.5731 54.288 51.1171 54.112 51.4691 53.76C51.8531 53.408 52.0451 53.056 52.0451 52.704L52.0931 52.176V50.208C52.1571 48.896 51.8371 48.24 51.1331 48.24C50.8131 48.24 50.5731 48.416 50.4131 48.768C50.2531 49.088 50.1731 49.408 50.1731 49.728V50.208V51.072C50.1731 51.264 50.0771 51.36 49.8851 51.36H47.0051C46.8451 51.36 46.7651 51.264 46.7651 51.072V50.256C46.7651 50.096 46.7651 49.904 46.7651 49.68C46.7971 49.424 46.8931 48.992 47.0531 48.384C47.2131 47.744 47.4211 47.184 47.6771 46.704C47.9651 46.224 48.3971 45.792 48.9731 45.408C49.5811 45.024 50.3011 44.832 51.1331 44.832C52.4451 44.832 53.4531 45.28 54.1571 46.176C54.8931 47.072 55.3091 47.968 55.4051 48.864L55.5011 50.256ZM89.2507 54.96C89.2507 54.96 89.2507 64.56 89.2507 83.76C89.2507 83.92 89.1707 84 89.0107 84H86.2267C86.0667 84 85.9867 83.92 85.9867 83.76V64.848C85.7627 65.04 85.4587 65.136 85.0747 65.136C84.1467 65.136 83.3627 64.896 82.7227 64.416C82.0827 63.936 81.6347 63.344 81.3787 62.64C81.1547 61.904 81.0107 61.328 80.9467 60.912C80.8827 60.496 80.8507 60.128 80.8507 59.808V59.184V45.888C80.8507 45.696 80.9307 45.6 81.0907 45.6H83.8747C84.0347 45.6 84.1147 45.696 84.1147 45.888V59.76C84.1147 61.04 84.4187 61.68 85.0267 61.68C85.2827 61.68 85.4907 61.52 85.6507 61.2C85.8107 60.88 85.9067 60.56 85.9387 60.24L85.9867 59.76V54.96C85.9867 54.8 86.0667 54.72 86.2267 54.72H88.9627C89.1547 54.72 89.2507 54.8 89.2507 54.96ZM107.818 83.424C107.818 83.424 107.786 83.44 107.722 83.472C107.018 84.336 106.026 84.768 104.746 84.768C103.946 84.768 103.242 84.576 102.634 84.192C102.026 83.84 101.594 83.408 101.338 82.896C101.082 82.352 100.874 81.824 100.714 81.312C100.586 80.8 100.506 80.352 100.474 79.968V79.44V45.84C100.474 45.68 100.554 45.6 100.714 45.6H103.546C103.706 45.6 103.786 45.68 103.786 45.84V79.488C103.754 80.8 104.074 81.456 104.746 81.456C105.034 81.456 105.258 81.296 105.418 80.976C105.578 80.624 105.658 80.288 105.658 79.968L105.706 79.488V45.84C105.706 45.68 105.786 45.6 105.946 45.6H108.778C108.938 45.6 109.018 45.68 109.018 45.84V79.44C109.018 79.696 109.034 79.904 109.066 80.064C109.098 80.224 109.146 80.32 109.21 80.352L109.258 80.4L111.466 81.888C111.626 81.984 111.642 82.096 111.514 82.224L109.978 84.528C109.882 84.656 109.754 84.688 109.594 84.624L107.818 83.424ZM118.552 45.6H124.072C124.232 45.6 124.312 45.68 124.312 45.84V79.488C124.28 80.8 124.616 81.456 125.32 81.456C125.608 81.456 125.816 81.296 125.944 80.976C126.104 80.624 126.2 80.288 126.232 79.968V79.488V76.224C126.232 76.064 126.312 75.984 126.472 75.984H129.304C129.496 75.984 129.592 76.064 129.592 76.224V79.44C129.592 79.6 129.576 79.792 129.544 80.016C129.544 80.24 129.464 80.672 129.304 81.312C129.176 81.92 128.968 82.464 128.68 82.944C128.424 83.392 127.992 83.808 127.384 84.192C126.808 84.576 126.12 84.768 125.32 84.768C124.008 84.768 123 84.336 122.296 83.472C121.592 82.576 121.208 81.68 121.144 80.784L121.048 79.44V49.152C121.048 48.992 120.952 48.912 120.76 48.912H118.552C118.392 48.912 118.312 48.832 118.312 48.672V45.84C118.312 45.68 118.392 45.6 118.552 45.6ZM145.712 83.424C145.712 83.424 145.68 83.44 145.616 83.472C144.912 84.336 143.92 84.768 142.64 84.768C141.84 84.768 141.136 84.576 140.528 84.192C139.92 83.84 139.488 83.408 139.232 82.896C138.976 82.352 138.768 81.824 138.608 81.312C138.48 80.8 138.4 80.352 138.368 79.968V79.44V45.84C138.368 45.68 138.448 45.6 138.608 45.6H141.44C141.6 45.6 141.68 45.68 141.68 45.84V79.488C141.648 80.8 141.968 81.456 142.64 81.456C142.928 81.456 143.152 81.296 143.312 80.976C143.472 80.624 143.552 80.288 143.552 79.968L143.6 79.488V45.84C143.6 45.68 143.68 45.6 143.84 45.6H146.672C146.832 45.6 146.912 45.68 146.912 45.84V79.44C146.912 79.696 146.928 79.904 146.96 80.064C146.992 80.224 147.04 80.32 147.104 80.352L147.152 80.4L149.36 81.888C149.52 81.984 149.536 82.096 149.408 82.224L147.872 84.528C147.776 84.656 147.648 84.688 147.488 84.624L145.712 83.424ZM165.854 50.256C165.854 52.592 165.23 54.304 163.982 55.392C163.854 55.488 163.79 55.584 163.79 55.68C163.79 55.744 163.822 55.792 163.886 55.824L163.982 55.872C164.494 56.128 164.894 56.576 165.182 57.216C165.502 57.824 165.694 58.368 165.758 58.848L165.854 59.616V79.344C165.854 79.504 165.838 79.712 165.806 79.968C165.806 80.192 165.726 80.624 165.566 81.264C165.406 81.872 165.182 82.416 164.894 82.896C164.638 83.376 164.206 83.808 163.598 84.192C163.022 84.576 162.318 84.768 161.486 84.768C160.174 84.768 159.15 84.32 158.414 83.424C157.71 82.528 157.31 81.632 157.214 80.736L157.118 79.344V76.08C157.118 75.92 157.198 75.84 157.358 75.84H160.238C160.43 75.84 160.526 75.92 160.526 76.08V79.392C160.494 80.704 160.814 81.36 161.486 81.36C161.774 81.36 161.998 81.2 162.158 80.88C162.318 80.528 162.398 80.192 162.398 79.872L162.446 79.392V59.664C162.446 59.024 162.254 58.544 161.87 58.224C161.518 57.872 161.15 57.696 160.766 57.696L160.19 57.648C160.03 57.648 159.95 57.568 159.95 57.408V54.528C159.95 54.368 160.03 54.288 160.19 54.288C160.926 54.288 161.47 54.112 161.822 53.76C162.206 53.408 162.398 53.056 162.398 52.704L162.446 52.176V50.208C162.51 48.896 162.19 48.24 161.486 48.24C161.166 48.24 160.926 48.416 160.766 48.768C160.606 49.088 160.526 49.408 160.526 49.728V50.208V51.072C160.526 51.264 160.43 51.36 160.238 51.36H157.358C157.198 51.36 157.118 51.264 157.118 51.072V50.256C157.118 50.096 157.118 49.904 157.118 49.68C157.15 49.424 157.246 48.992 157.406 48.384C157.566 47.744 157.774 47.184 158.03 46.704C158.318 46.224 158.75 45.792 159.326 45.408C159.934 45.024 160.654 44.832 161.486 44.832C162.798 44.832 163.806 45.28 164.51 46.176C165.246 47.072 165.662 47.968 165.758 48.864L165.854 50.256ZM180.558 48.48C180.334 48.672 180.222 48.928 180.222 49.248C180.222 49.568 180.334 49.84 180.558 50.064C180.782 50.288 181.054 50.4 181.374 50.4C181.662 50.4 181.902 50.288 182.094 50.064C182.318 49.84 182.43 49.568 182.43 49.248C182.43 48.928 182.318 48.672 182.094 48.48C181.902 48.256 181.662 48.144 181.374 48.144C181.054 48.144 180.782 48.256 180.558 48.48ZM180.222 74.64C180.222 74.832 180.302 74.928 180.462 74.928H185.214C185.342 74.928 185.406 75.008 185.406 75.168V77.952C185.406 78.112 185.342 78.192 185.214 78.192H180.462C180.302 78.192 180.222 78.288 180.222 78.48V83.76C180.222 83.92 180.126 84 179.934 84H177.102C176.974 84 176.91 83.92 176.91 83.76V78.48C176.91 78.32 176.83 78.24 176.67 78.24H174.462C174.302 78.24 174.222 78.144 174.222 77.952V75.168C174.222 75.008 174.302 74.928 174.462 74.928H176.67C176.83 74.928 176.91 74.848 176.91 74.688V49.104C176.942 47.92 177.374 46.912 178.206 46.08C179.07 45.248 180.11 44.832 181.326 44.832C182.542 44.832 183.582 45.264 184.446 46.128C185.31 46.992 185.742 48.032 185.742 49.248C185.742 50.496 185.31 51.552 184.446 52.416C183.582 53.248 182.542 53.664 181.326 53.664C180.878 53.664 180.542 53.632 180.318 53.568C180.318 53.568 180.302 53.568 180.27 53.568C180.238 53.568 180.222 53.6 180.222 53.664V74.64Z" fill="white"/>
</svg>
