<svg width="144" height="66" viewBox="0 0 144 66" fill="none" xmlns="http://www.w3.org/2000/svg">
<path d="M3.07492 26.9098C2.98087 26.9098 2.93384 26.9688 2.93384 27.087V28.7534C2.93384 28.8716 2.87506 28.9306 2.7575 28.9306H0.676639C0.559076 28.9306 0.500295 28.8716 0.500295 28.7534V22.7971C0.500295 22.6789 0.559076 22.6198 0.676639 22.6198H2.7575C2.87506 22.6198 2.93384 22.6789 2.93384 22.7971C2.93384 22.7971 2.93384 23.0098 2.93384 23.4352C2.93384 23.7425 2.99262 23.778 3.11019 23.5416C3.36882 23.0452 3.63922 22.2298 3.92137 21.0953C4.18001 19.9607 4.37986 18.7907 4.52094 17.5853C4.77958 15.269 4.9089 12.7281 4.9089 9.96264C4.9089 9.56082 4.89714 9.09992 4.87363 8.57992C4.87363 8.03629 4.86187 7.57539 4.83836 7.19721C4.83836 6.81903 4.83836 6.61812 4.83836 6.59448C4.83836 6.54721 4.81485 6.51176 4.76782 6.48812C4.74431 6.46449 4.70904 6.45267 4.66201 6.45267H4.59148C4.42689 6.49994 4.18001 6.52358 3.85083 6.52358C2.95736 6.52358 2.1932 6.21631 1.55836 5.60177C0.92352 4.96359 0.606101 4.1836 0.606101 3.26179C0.606101 2.36362 0.92352 1.59544 1.55836 0.957264C2.1932 0.319088 2.95736 0 3.85083 0C4.74431 0 5.50846 0.30727 6.1433 0.921811C6.77814 1.53635 7.10732 2.28089 7.13083 3.15543C7.13083 3.22633 7.14259 3.59269 7.1661 4.25451C7.21312 4.91632 7.24839 5.77904 7.27191 6.84267C7.31893 7.88265 7.34244 8.92265 7.34244 9.96264C7.34244 11.8772 7.27191 13.839 7.13083 15.848C6.94273 17.9989 6.66058 19.9371 6.28438 21.6625C6.00223 22.9152 5.70832 23.8489 5.40266 24.4634L5.26158 24.7116C5.80237 24.7116 6.2256 24.8298 6.53126 25.0661C6.83692 25.2789 7.01327 25.5034 7.06029 25.7398L7.09556 26.0943L7.06029 28.6825C7.06029 28.8479 6.98976 28.9306 6.84868 28.9306H4.76782C4.67377 28.9306 4.62674 28.8597 4.62674 28.7179V28.5761C4.62674 27.4652 4.30933 26.9098 3.67449 26.9098H3.07492ZM3.25126 3.86451C3.41585 4.02996 3.61571 4.11269 3.85083 4.11269C4.08596 4.11269 4.27406 4.02996 4.41513 3.86451C4.57972 3.69906 4.66201 3.49815 4.66201 3.26179C4.66201 3.02543 4.57972 2.83634 4.41513 2.69452C4.27406 2.52907 4.08596 2.44634 3.85083 2.44634C3.61571 2.44634 3.41585 2.52907 3.25126 2.69452C3.11019 2.83634 3.03965 3.02543 3.03965 3.26179C3.03965 3.49815 3.11019 3.69906 3.25126 3.86451Z" fill="#1F092E"/>
<path d="M19.5129 28.5052C19.5129 28.5052 19.4894 28.517 19.4424 28.5406C18.9251 29.1788 18.1962 29.4979 17.2557 29.4979C16.6679 29.4979 16.1506 29.3561 15.7039 29.0725C15.2572 28.8125 14.9397 28.4934 14.7516 28.1152C14.5635 27.7134 14.4107 27.3234 14.2932 26.9452C14.1991 26.567 14.1403 26.2361 14.1168 25.9525V0.74454C14.1168 0.626359 14.1756 0.567269 14.2932 0.567269H16.374C16.4916 0.567269 16.5504 0.626359 16.5504 0.74454V25.5979C16.5268 26.567 16.762 27.0516 17.2557 27.0516C17.4673 27.0516 17.6319 26.9334 17.7495 26.697C17.8671 26.437 17.9258 26.1889 17.9258 25.9525L17.9611 25.5979V0.74454C17.9611 0.626359 18.0199 0.567269 18.1375 0.567269H20.2183C20.3359 0.567269 20.3947 0.626359 20.3947 0.74454V25.5625C20.3947 25.7516 20.4064 25.9052 20.4299 26.0234C20.4534 26.1416 20.4887 26.2125 20.5357 26.2361L20.571 26.2716L22.1934 27.3707C22.3109 27.4416 22.3227 27.5243 22.2286 27.6188L21.1 29.3206C21.0295 29.4152 20.9354 29.4388 20.8179 29.3916L19.5129 28.5052Z" fill="#1F092E"/>
<path d="M30.6449 28.7534C30.6449 28.8716 30.5979 28.9306 30.5039 28.9306H28.3877C28.2702 28.9306 28.2114 28.8716 28.2114 28.7534V3.93542C28.2114 3.81724 28.2114 3.67542 28.2114 3.50997C28.2349 3.34452 28.2937 3.03725 28.3877 2.58816C28.5053 2.11544 28.6581 1.71362 28.8462 1.38272C29.0343 1.02817 29.3517 0.709084 29.7985 0.425451C30.2452 0.141817 30.7625 0 31.3503 0C32.2908 0 33.0197 0.330906 33.537 0.992718C34.0778 1.65453 34.3717 2.31634 34.4187 2.97815L34.4892 3.93542V6.62994C34.4892 6.77176 34.4304 6.84267 34.3129 6.84267H32.232C32.1145 6.84267 32.0557 6.77176 32.0557 6.62994V3.89996C32.0792 2.93088 31.8441 2.44634 31.3503 2.44634C31.1387 2.44634 30.9741 2.57634 30.8565 2.83634C30.739 3.0727 30.6684 3.30906 30.6449 3.54542V28.7534Z" fill="#1F092E"/>
<path d="M47.3078 3.19088V25.5625C47.3078 25.6807 47.296 25.8225 47.2725 25.9879C47.2725 26.1534 47.2137 26.4725 47.0962 26.9452C47.0021 27.3943 46.8493 27.7961 46.6377 28.1507C46.4496 28.4816 46.1322 28.7888 45.6854 29.0725C45.2622 29.3561 44.7567 29.4979 44.1689 29.4979C43.5811 29.4979 43.0638 29.3561 42.617 29.0725C42.1938 28.8125 41.8764 28.4934 41.6648 28.1152C41.4767 27.7134 41.3238 27.3234 41.2063 26.9452C41.1122 26.567 41.0535 26.2361 41.0299 25.9525V0.74454C41.0299 0.626359 41.0887 0.567269 41.2063 0.567269H43.2166C43.3812 0.567269 43.4635 0.661813 43.4635 0.850901V25.7398C43.44 26.6143 43.6751 27.0516 44.1689 27.0516C44.3805 27.0516 44.5451 26.9334 44.6626 26.697C44.7802 26.437 44.839 26.1889 44.839 25.9525L44.8742 25.5979V0.74454C44.8742 0.626359 44.933 0.567269 45.0506 0.567269H49.3181C49.4592 0.567269 49.5297 0.626359 49.5297 0.74454V2.83634C49.5297 2.95452 49.4592 3.01361 49.3181 3.01361H47.4841C47.3666 3.01361 47.3078 3.0727 47.3078 3.19088Z" fill="#1F092E"/>
<path d="M61.0709 28.5052C61.0709 28.5052 61.0474 28.517 61.0004 28.5406C60.4831 29.1788 59.7542 29.4979 58.8137 29.4979C58.2259 29.4979 57.7086 29.3561 57.2619 29.0725C56.8151 28.8125 56.4977 28.4934 56.3096 28.1152C56.1215 27.7134 55.9687 27.3234 55.8511 26.9452C55.7571 26.567 55.6983 26.2361 55.6748 25.9525V0.74454C55.6748 0.626359 55.7335 0.567269 55.8511 0.567269H57.932C58.0495 0.567269 58.1083 0.626359 58.1083 0.74454V25.5979C58.0848 26.567 58.3199 27.0516 58.8137 27.0516C59.0253 27.0516 59.1899 26.9334 59.3074 26.697C59.425 26.437 59.4838 26.1889 59.4838 25.9525L59.5191 25.5979V0.74454C59.5191 0.626359 59.5778 0.567269 59.6954 0.567269H61.7763C61.8938 0.567269 61.9526 0.626359 61.9526 0.74454V25.5625C61.9526 25.7516 61.9644 25.9052 61.9879 26.0234C62.0114 26.1416 62.0467 26.2125 62.0937 26.2361L62.129 26.2716L63.7513 27.3707C63.8689 27.4416 63.8806 27.5243 63.7866 27.6188L62.658 29.3206C62.5874 29.4152 62.4934 29.4388 62.3758 29.3916L61.0709 28.5052Z" fill="#1F092E"/>
<path d="M68.9582 0.567269H73.0141C73.1316 0.567269 73.1904 0.626359 73.1904 0.74454V25.5979C73.1669 26.567 73.4138 27.0516 73.9311 27.0516C74.1427 27.0516 74.2955 26.9334 74.3895 26.697C74.5071 26.437 74.5776 26.1889 74.6012 25.9525V23.1871C74.6012 23.0689 74.6599 23.0098 74.7775 23.0098H76.8584C76.9994 23.0098 77.07 23.0689 77.07 23.1871V25.5625C77.07 25.6807 77.0582 25.8225 77.0347 25.9879C77.0347 26.1534 76.9759 26.4725 76.8584 26.9452C76.7643 27.3943 76.6115 27.7961 76.3999 28.1507C76.2118 28.4816 75.8944 28.7888 75.4476 29.0725C75.0244 29.3561 74.5189 29.4979 73.9311 29.4979C72.967 29.4979 72.2264 29.1788 71.7091 28.5406C71.1918 27.8788 70.9097 27.217 70.8627 26.5552L70.7921 25.5625V3.19088C70.7921 3.0727 70.7216 3.01361 70.5805 3.01361H68.9582C68.8406 3.01361 68.7818 2.95452 68.7818 2.83634V0.74454C68.7818 0.626359 68.8406 0.567269 68.9582 0.567269Z" fill="#1F092E"/>
<path d="M88.914 28.5052C88.914 28.5052 88.8904 28.517 88.8434 28.5406C88.3261 29.1788 87.5973 29.4979 86.6568 29.4979C86.0689 29.4979 85.5517 29.3561 85.1049 29.0725C84.6582 28.8125 84.3408 28.4934 84.1527 28.1152C83.9646 27.7134 83.8117 27.3234 83.6942 26.9452C83.6001 26.567 83.5414 26.2361 83.5178 25.9525V0.74454C83.5178 0.626359 83.5766 0.567269 83.6942 0.567269H85.775C85.8926 0.567269 85.9514 0.626359 85.9514 0.74454V25.5979C85.9279 26.567 86.163 27.0516 86.6568 27.0516C86.8684 27.0516 87.033 26.9334 87.1505 26.697C87.2681 26.437 87.3269 26.1889 87.3269 25.9525L87.3621 25.5979V0.74454C87.3621 0.626359 87.4209 0.567269 87.5385 0.567269H89.6193C89.7369 0.567269 89.7957 0.626359 89.7957 0.74454V25.5625C89.7957 25.7516 89.8074 25.9052 89.8309 26.0234C89.8545 26.1416 89.8897 26.2125 89.9368 26.2361L89.972 26.2716L91.5944 27.3707C91.712 27.4416 91.7237 27.5243 91.6297 27.6188L90.5011 29.3206C90.4305 29.4152 90.3365 29.4388 90.2189 29.3916L88.914 28.5052Z" fill="#1F092E"/>
<path d="M96.6954 4.04178C96.6719 3.9236 96.7189 3.86451 96.8365 3.86451H100.892C101.01 3.86451 101.069 3.7936 101.069 3.65178V0.74454C101.069 0.626359 101.128 0.567269 101.245 0.567269H103.291C103.408 0.567269 103.467 0.626359 103.467 0.74454V6.06267C103.467 6.18085 103.408 6.23994 103.291 6.23994H99.7638C99.6227 6.23994 99.5757 6.29903 99.6227 6.41721L104.172 28.7534C104.172 28.8716 104.125 28.9306 104.031 28.9306H101.95C101.856 28.9306 101.786 28.8716 101.739 28.7534L96.6954 4.04178Z" fill="#1F092E"/>
<path d="M112.865 28.7534C112.865 28.8716 112.818 28.9306 112.724 28.9306H110.608C110.491 28.9306 110.432 28.8716 110.432 28.7534V3.93542C110.432 3.81724 110.432 3.67542 110.432 3.50997C110.455 3.34452 110.514 3.03725 110.608 2.58816C110.726 2.11544 110.879 1.71362 111.067 1.38272C111.255 1.02817 111.572 0.709084 112.019 0.425451C112.466 0.141817 112.983 0 113.571 0C114.511 0 115.24 0.330906 115.757 0.992718C116.298 1.65453 116.592 2.31634 116.639 2.97815L116.71 3.93542V6.62994C116.71 6.77176 116.651 6.84267 116.533 6.84267H114.452C114.335 6.84267 114.276 6.77176 114.276 6.62994V3.89996C114.3 2.93088 114.064 2.44634 113.571 2.44634C113.359 2.44634 113.195 2.57634 113.077 2.83634C112.959 3.0727 112.889 3.30906 112.865 3.54542V28.7534Z" fill="#1F092E"/>
<path d="M128.646 28.5052C128.646 28.5052 128.623 28.517 128.576 28.5406C128.059 29.1788 127.33 29.4979 126.389 29.4979C125.801 29.4979 125.284 29.3561 124.837 29.0725C124.391 28.8125 124.073 28.4934 123.885 28.1152C123.697 27.7134 123.544 27.3234 123.427 26.9452C123.333 26.567 123.274 26.2361 123.25 25.9525V0.74454C123.25 0.626359 123.309 0.567269 123.427 0.567269H125.508C125.625 0.567269 125.684 0.626359 125.684 0.74454V25.5979C125.66 26.567 125.895 27.0516 126.389 27.0516C126.601 27.0516 126.765 26.9334 126.883 26.697C127.001 26.437 127.059 26.1889 127.059 25.9525L127.095 25.5979V0.74454C127.095 0.626359 127.153 0.567269 127.271 0.567269H129.352C129.469 0.567269 129.528 0.626359 129.528 0.74454V25.5625C129.528 25.7516 129.54 25.9052 129.563 26.0234C129.587 26.1416 129.622 26.2125 129.669 26.2361L129.705 26.2716L131.327 27.3707C131.444 27.4416 131.456 27.5243 131.362 27.6188L130.234 29.3206C130.163 29.4152 130.069 29.4388 129.951 29.3916L128.646 28.5052Z" fill="#1F092E"/>
<path d="M143.517 23.1871V25.5625C143.517 25.6807 143.505 25.8225 143.482 25.9879C143.482 26.1534 143.423 26.4725 143.305 26.9452C143.211 27.3943 143.07 27.7961 142.882 28.1507C142.694 28.4816 142.377 28.7888 141.93 29.0725C141.483 29.3561 140.966 29.4979 140.378 29.4979C139.79 29.4979 139.273 29.3561 138.826 29.0725C138.379 28.8125 138.062 28.4934 137.874 28.1152C137.686 27.7134 137.533 27.3234 137.415 26.9452C137.321 26.567 137.263 26.2361 137.239 25.9525V8.54447C137.239 8.42629 137.239 8.28447 137.239 8.11902C137.263 7.95356 137.321 7.64629 137.415 7.19721C137.533 6.72448 137.686 6.32267 137.874 5.99176C138.062 5.63722 138.379 5.31813 138.826 5.0345C139.273 4.75087 139.79 4.60905 140.378 4.60905C140.707 4.63268 140.942 4.65632 141.083 4.67996C141.083 4.15996 140.989 3.75815 140.801 3.47451C140.613 3.19088 140.425 3.04906 140.237 3.04906L139.955 3.01361H137.415C137.298 3.01361 137.239 2.95452 137.239 2.83634V0.779993C137.239 0.638177 137.298 0.567269 137.415 0.567269H140.66C141.836 0.567269 142.659 1.13454 143.129 2.26907C143.388 2.88361 143.517 3.86451 143.517 5.21177V8.54447C143.517 8.66265 143.458 8.72174 143.341 8.72174H141.26C141.142 8.72174 141.083 8.66265 141.083 8.54447C141.13 7.57538 140.895 7.09084 140.378 7.09084C140.143 7.09084 139.967 7.20902 139.849 7.44539C139.731 7.68175 139.673 7.91811 139.673 8.15447V25.5979C139.673 26.567 139.908 27.0516 140.378 27.0516C140.59 27.0516 140.754 26.9334 140.872 26.697C140.989 26.437 141.048 26.1889 141.048 25.9525L141.083 25.5979V23.1871C141.083 23.0689 141.142 23.0098 141.26 23.0098H143.341C143.458 23.0098 143.517 23.0689 143.517 23.1871Z" fill="#1F092E"/>
<path d="M0.00653124 37.7154C-0.0195938 37.5841 0.0326563 37.5184 0.163282 37.5184H4.66985C4.80048 37.5184 4.86579 37.4397 4.86579 37.2821V34.0518C4.86579 33.9205 4.9311 33.8548 5.06173 33.8548H7.33461C7.46523 33.8548 7.53054 33.9205 7.53054 34.0518V39.9608C7.53054 40.0922 7.46523 40.1578 7.33461 40.1578H3.41585C3.2591 40.1578 3.20685 40.2235 3.2591 40.3548L8.31429 65.1727C8.31429 65.304 8.26204 65.3697 8.15755 65.3697H5.84548C5.74098 65.3697 5.6626 65.304 5.61035 65.1727L0.00653124 37.7154Z" fill="#1F092E"/>
<path d="M21.2257 64.897C21.2257 64.897 21.1996 64.9101 21.1473 64.9364C20.5726 65.6455 19.7627 66 18.7177 66C18.0645 66 17.4898 65.8424 16.9934 65.5273C16.497 65.2384 16.1444 64.8839 15.9354 64.4637C15.7264 64.0172 15.5565 63.5839 15.4259 63.1637C15.3214 62.7435 15.2561 62.3758 15.23 62.0606V34.0518C15.23 33.9205 15.2953 33.8548 15.4259 33.8548H17.738C17.8686 33.8548 17.9339 33.9205 17.9339 34.0518V61.6667C17.9078 62.7435 18.169 63.2818 18.7177 63.2818C18.9528 63.2818 19.1357 63.1505 19.2663 62.8879C19.3969 62.599 19.4622 62.3233 19.4622 62.0606L19.5014 61.6667V34.0518C19.5014 33.9205 19.5667 33.8548 19.6974 33.8548H22.0094C22.1401 33.8548 22.2054 33.9205 22.2054 34.0518V61.6273C22.2054 61.8374 22.2184 62.0081 22.2446 62.1394C22.2707 62.2707 22.3099 62.3495 22.3621 62.3758L22.4013 62.4152L24.2039 63.6364C24.3346 63.7152 24.3476 63.8071 24.2431 63.9121L22.9891 65.803C22.9107 65.9081 22.8062 65.9343 22.6756 65.8818L21.2257 64.897Z" fill="#1F092E"/>
<path d="M37.6701 37.676C37.6701 39.5932 37.1606 40.9982 36.1418 41.8911C36.0372 41.9699 35.985 42.0487 35.985 42.1275C35.985 42.18 36.0111 42.2194 36.0634 42.2457L36.1418 42.2851C36.5598 42.4952 36.8863 42.8628 37.1214 43.3881C37.3827 43.8871 37.5394 44.3335 37.5917 44.7275L37.6701 45.3578V61.5485C37.6701 61.6798 37.657 61.8505 37.6309 62.0606C37.6309 62.2445 37.5656 62.599 37.4349 63.1243C37.3043 63.6233 37.1214 64.0697 36.8863 64.4637C36.6773 64.8576 36.3246 65.2121 35.8282 65.5273C35.358 65.8424 34.7832 66 34.104 66C33.0329 66 32.1969 65.6323 31.596 64.897C31.0212 64.1616 30.6947 63.4263 30.6163 62.6909L30.5379 61.5485V58.8698C30.5379 58.7385 30.6032 58.6728 30.7339 58.6728H33.0851C33.2419 58.6728 33.3202 58.7385 33.3202 58.8698V61.5879C33.2941 62.6647 33.5554 63.2031 34.104 63.2031C34.3391 63.2031 34.522 63.0717 34.6526 62.8091C34.7832 62.5202 34.8486 62.2445 34.8486 61.9819L34.8877 61.5879V45.3972C34.8877 44.8719 34.731 44.478 34.4175 44.2154C34.1301 43.9265 33.8297 43.782 33.5162 43.782L33.0459 43.7426C32.9153 43.7426 32.85 43.677 32.85 43.5457V41.182C32.85 41.0507 32.9153 40.9851 33.0459 40.9851C33.6468 40.9851 34.0909 40.8406 34.3783 40.5517C34.6918 40.2629 34.8486 39.974 34.8486 39.6851L34.8877 39.2518V37.6366C34.94 36.5599 34.6787 36.0215 34.104 36.0215C33.8427 36.0215 33.6468 36.1659 33.5162 36.4548C33.3856 36.7174 33.3202 36.9801 33.3202 37.2427V38.3457C33.3202 38.5033 33.2419 38.5821 33.0851 38.5821H30.7339C30.6032 38.5821 30.5379 38.5033 30.5379 38.3457V37.676C30.5379 37.5447 30.5379 37.3871 30.5379 37.2033C30.5641 36.9932 30.6424 36.6387 30.7731 36.1397C30.9037 35.6144 31.0735 35.1548 31.2825 34.7609C31.5176 34.367 31.8703 34.0124 32.3406 33.6973C32.8369 33.3821 33.4247 33.2245 34.104 33.2245C35.1751 33.2245 35.9981 33.5922 36.5728 34.3276C37.1737 35.0629 37.5133 35.7983 37.5917 36.5336L37.6701 37.676Z" fill="#1F092E"/>
<path d="M65.2235 41.5366C65.2235 41.5366 65.2235 49.4153 65.2235 65.1727C65.2235 65.304 65.1582 65.3697 65.0276 65.3697H62.7547C62.6241 65.3697 62.5588 65.304 62.5588 65.1727V49.6517C62.3759 49.8092 62.1277 49.888 61.8142 49.888C61.0566 49.888 60.4165 49.6911 59.894 49.2971C59.3715 48.9032 59.0058 48.4173 58.7968 47.8396C58.6139 47.2355 58.4963 46.7628 58.4441 46.4214C58.3918 46.08 58.3657 45.778 58.3657 45.5153V34.0912C58.3657 33.9336 58.431 33.8548 58.5616 33.8548H60.8345C60.9651 33.8548 61.0304 33.9336 61.0304 34.0912V45.4759C61.0304 46.5264 61.2786 47.0517 61.775 47.0517C61.984 47.0517 62.1538 46.9204 62.2844 46.6578C62.4151 46.3951 62.4934 46.1325 62.5196 45.8699L62.5588 45.4759V41.5366C62.5588 41.4053 62.6241 41.3396 62.7547 41.3396H64.9884C65.1451 41.3396 65.2235 41.4053 65.2235 41.5366Z" fill="#1F092E"/>
<path d="M80.3821 64.897C80.3821 64.897 80.3559 64.9101 80.3037 64.9364C79.7289 65.6455 78.9191 66 77.8741 66C77.2209 66 76.6462 65.8424 76.1498 65.5273C75.6534 65.2384 75.3007 64.8839 75.0917 64.4637C74.8827 64.0172 74.7129 63.5839 74.5823 63.1637C74.4778 62.7435 74.4125 62.3758 74.3864 62.0606V34.0518C74.3864 33.9205 74.4517 33.8548 74.5823 33.8548H76.8944C77.025 33.8548 77.0903 33.9205 77.0903 34.0518V61.6667C77.0642 62.7435 77.3254 63.2818 77.8741 63.2818C78.1092 63.2818 78.2921 63.1505 78.4227 62.8879C78.5533 62.599 78.6186 62.3233 78.6186 62.0606L78.6578 61.6667V34.0518C78.6578 33.9205 78.7231 33.8548 78.8537 33.8548H81.1658C81.2964 33.8548 81.3617 33.9205 81.3617 34.0518V61.6273C81.3617 61.8374 81.3748 62.0081 81.4009 62.1394C81.4271 62.2707 81.4663 62.3495 81.5185 62.3758L81.5577 62.4152L83.3603 63.6364C83.4909 63.7152 83.504 63.8071 83.3995 63.9121L82.1455 65.803C82.0671 65.9081 81.9626 65.9343 81.832 65.8818L80.3821 64.897Z" fill="#1F092E"/>
<path d="M89.1457 33.8548H93.6523C93.7829 33.8548 93.8482 33.9205 93.8482 34.0518V61.6667C93.8221 62.7435 94.0964 63.2818 94.6711 63.2818C94.9063 63.2818 95.0761 63.1505 95.1806 62.8879C95.3112 62.599 95.3896 62.3233 95.4157 62.0606V58.9879C95.4157 58.8566 95.481 58.791 95.6116 58.791H97.9237C98.0804 58.791 98.1588 58.8566 98.1588 58.9879V61.6273C98.1588 61.7586 98.1458 61.9162 98.1196 62.1C98.1196 62.2839 98.0543 62.6384 97.9237 63.1637C97.8192 63.6626 97.6494 64.1091 97.4143 64.503C97.2053 64.8707 96.8526 65.2121 96.3562 65.5273C95.8859 65.8424 95.3243 66 94.6711 66C93.6 66 92.7771 65.6455 92.2023 64.9364C91.6276 64.201 91.3141 63.4657 91.2618 62.7303L91.1834 61.6273V36.77C91.1834 36.6387 91.1051 36.573 90.9483 36.573H89.1457C89.0151 36.573 88.9497 36.5073 88.9497 36.376V34.0518C88.9497 33.9205 89.0151 33.8548 89.1457 33.8548Z" fill="#1F092E"/>
<path d="M111.319 64.897C111.319 64.897 111.293 64.9101 111.24 64.9364C110.666 65.6455 109.856 66 108.811 66C108.158 66 107.583 65.8424 107.087 65.5273C106.59 65.2384 106.237 64.8839 106.028 64.4637C105.819 64.0172 105.65 63.5839 105.519 63.1637C105.415 62.7435 105.349 62.3758 105.323 62.0606V34.0518C105.323 33.9205 105.388 33.8548 105.519 33.8548H107.831C107.962 33.8548 108.027 33.9205 108.027 34.0518V61.6667C108.001 62.7435 108.262 63.2818 108.811 63.2818C109.046 63.2818 109.229 63.1505 109.359 62.8879C109.49 62.599 109.555 62.3233 109.555 62.0606L109.595 61.6667V34.0518C109.595 33.9205 109.66 33.8548 109.79 33.8548H112.103C112.233 33.8548 112.298 33.9205 112.298 34.0518V61.6273C112.298 61.8374 112.312 62.0081 112.338 62.1394C112.364 62.2707 112.403 62.3495 112.455 62.3758L112.494 62.4152L114.297 63.6364C114.428 63.7152 114.441 63.8071 114.336 63.9121L113.082 65.803C113.004 65.9081 112.899 65.9343 112.769 65.8818L111.319 64.897Z" fill="#1F092E"/>
<path d="M127.763 37.676C127.763 39.5932 127.254 40.9982 126.235 41.8911C126.13 41.9699 126.078 42.0487 126.078 42.1275C126.078 42.18 126.104 42.2194 126.156 42.2457L126.235 42.2851C126.653 42.4952 126.979 42.8628 127.215 43.3881C127.476 43.8871 127.633 44.3335 127.685 44.7275L127.763 45.3578V61.5485C127.763 61.6798 127.75 61.8505 127.724 62.0606C127.724 62.2445 127.659 62.599 127.528 63.1243C127.397 63.6233 127.215 64.0697 126.979 64.4637C126.77 64.8576 126.418 65.2121 125.921 65.5273C125.451 65.8424 124.876 66 124.197 66C123.126 66 122.29 65.6323 121.689 64.897C121.114 64.1616 120.788 63.4263 120.709 62.6909L120.631 61.5485V58.8698C120.631 58.7385 120.696 58.6728 120.827 58.6728H123.178C123.335 58.6728 123.413 58.7385 123.413 58.8698V61.5879C123.387 62.6647 123.648 63.2031 124.197 63.2031C124.432 63.2031 124.615 63.0717 124.746 62.8091C124.876 62.5202 124.942 62.2445 124.942 61.9819L124.981 61.5879V45.3972C124.981 44.8719 124.824 44.478 124.511 44.2154C124.223 43.9265 123.923 43.782 123.609 43.782L123.139 43.7426C123.008 43.7426 122.943 43.677 122.943 43.5457V41.182C122.943 41.0507 123.008 40.9851 123.139 40.9851C123.74 40.9851 124.184 40.8406 124.471 40.5517C124.785 40.2629 124.942 39.974 124.942 39.6851L124.981 39.2518V37.6366C125.033 36.5599 124.772 36.0215 124.197 36.0215C123.936 36.0215 123.74 36.1659 123.609 36.4548C123.479 36.7174 123.413 36.9801 123.413 37.2427V38.3457C123.413 38.5033 123.335 38.5821 123.178 38.5821H120.827C120.696 38.5821 120.631 38.5033 120.631 38.3457V37.676C120.631 37.5447 120.631 37.3871 120.631 37.2033C120.657 36.9932 120.736 36.6387 120.866 36.1397C120.997 35.6144 121.167 35.1548 121.376 34.7609C121.611 34.367 121.963 34.0124 122.434 33.6973C122.93 33.3821 123.518 33.2245 124.197 33.2245C125.268 33.2245 126.091 33.5922 126.666 34.3276C127.267 35.0629 127.606 35.7983 127.685 36.5336L127.763 37.676Z" fill="#1F092E"/>
<path d="M139.768 36.2185C139.585 36.376 139.493 36.5861 139.493 36.8488C139.493 37.1114 139.585 37.3346 139.768 37.5184C139.951 37.7023 140.173 37.7942 140.434 37.7942C140.669 37.7942 140.865 37.7023 141.022 37.5184C141.205 37.3346 141.296 37.1114 141.296 36.8488C141.296 36.5861 141.205 36.376 141.022 36.2185C140.865 36.0346 140.669 35.9427 140.434 35.9427C140.173 35.9427 139.951 36.0346 139.768 36.2185ZM139.493 57.688C139.493 57.8455 139.559 57.9243 139.689 57.9243H143.569C143.673 57.9243 143.726 57.99 143.726 58.1213V60.4061C143.726 60.5374 143.673 60.6031 143.569 60.6031H139.689C139.559 60.6031 139.493 60.6819 139.493 60.8394V65.1727C139.493 65.304 139.415 65.3697 139.258 65.3697H136.946C136.842 65.3697 136.789 65.304 136.789 65.1727V60.8394C136.789 60.7081 136.724 60.6425 136.594 60.6425H134.791C134.66 60.6425 134.595 60.5637 134.595 60.4061V58.1213C134.595 57.99 134.66 57.9243 134.791 57.9243H136.594C136.724 57.9243 136.789 57.8587 136.789 57.7273V36.7306C136.816 35.7589 137.168 34.9316 137.848 34.2488C138.553 33.566 139.402 33.2245 140.395 33.2245C141.387 33.2245 142.237 33.5791 142.942 34.2882C143.647 34.9973 144 35.8508 144 36.8488C144 37.873 143.647 38.7396 142.942 39.4487C142.237 40.1315 141.387 40.473 140.395 40.473C140.029 40.473 139.755 40.4467 139.572 40.3942C139.572 40.3942 139.559 40.3942 139.533 40.3942C139.506 40.3942 139.493 40.4204 139.493 40.473V57.688Z" fill="#1F092E"/>
</svg>
