<svg width="48" height="49" viewBox="0 0 48 49" fill="none" xmlns="http://www.w3.org/2000/svg">
<path d="M0 0.5H48V48.5H0V0.5Z" fill="#E5C02C"/>
<g clip-path="url(#clip0_3_3861)">
<path d="M9 26.168H12.3333V22.8347H9V26.168ZM9 32.8347H12.3333V29.5013H9V32.8347ZM9 19.5013H12.3333V16.168H9V19.5013ZM15.6667 26.168H39V22.8347H15.6667V26.168ZM15.6667 32.8347H39V29.5013H15.6667V32.8347ZM15.6667 16.168V19.5013H39V16.168H15.6667ZM9 26.168H12.3333V22.8347H9V26.168ZM9 32.8347H12.3333V29.5013H9V32.8347ZM9 19.5013H12.3333V16.168H9V19.5013ZM15.6667 26.168H39V22.8347H15.6667V26.168ZM15.6667 32.8347H39V29.5013H15.6667V32.8347ZM15.6667 16.168V19.5013H39V16.168H15.6667Z" fill="#1F092E"/>
</g>
<defs>
<clipPath id="clip0_3_3861">
<rect width="40" height="40.0001" fill="white" transform="translate(4 4.5)"/>
</clipPath>
</defs>
</svg>
